<svg width="208" height="49" viewBox="0 0 208 49" fill="none" xmlns="http://www.w3.org/2000/svg">
<path fill-rule="evenodd" clip-rule="evenodd" d="M133.467 17.3613C133.912 16.9365 134.634 16.7241 135.619 16.7241L136.275 16.7589V11.5684C135.993 11.5337 135.568 11.5337 135.005 11.5337C132.301 11.5337 130.254 12.2018 128.825 13.5303C127.396 14.8588 126.69 16.7473 126.69 19.1958V19.4082H124.322V24.4905H126.69V39.1079H132.714V24.4905H136.291V19.4082H132.726C132.772 18.4659 133.023 17.7862 133.467 17.3613ZM99.215 27.6688C99.2124 25.0324 98.5469 22.9611 97.2183 21.4549V21.4665C95.8898 19.9603 94.0953 19.2073 91.8348 19.2073C90.4531 19.1736 89.0897 19.5282 87.8995 20.2307C86.8012 20.8926 85.9226 21.8639 85.3738 23.0229V12.9818H79.3376V39.1001H85.3738V28.6497C85.3738 27.2169 85.733 26.1047 86.4513 25.3323C86.8253 24.9418 87.2789 24.6363 87.7813 24.4364C88.2837 24.2365 88.8231 24.1469 89.3632 24.1737C89.8779 24.151 90.3916 24.2385 90.8698 24.4303C91.348 24.6221 91.7797 24.9138 92.136 25.286C92.8312 26.0274 93.1788 27.0573 93.1788 28.3755V39.1078H99.215V27.6688ZM72.0124 38.3663C73.2328 37.7849 74.2618 36.8671 74.9783 35.7209V35.7093C75.6459 34.6141 75.9937 33.3539 75.9824 32.0714C75.985 30.4468 75.6207 29.1286 74.8895 28.1167C74.2138 27.1497 73.3193 26.3558 72.2789 25.7996C71.0144 25.1685 69.7041 24.634 68.359 24.2007C67.2506 23.803 66.4048 23.4708 65.814 23.2121C65.2637 22.9789 64.7659 22.6374 64.3503 22.208C63.9661 21.8033 63.7567 21.2636 63.7672 20.7057C63.7458 20.3978 63.7933 20.089 63.9062 19.8017C64.0191 19.5145 64.1945 19.256 64.4198 19.0451C64.9031 18.6536 65.5132 18.453 66.1345 18.4812C66.4927 18.4634 66.8508 18.5182 67.1873 18.6423C67.5238 18.7664 67.8317 18.9573 68.0925 19.2034C68.6001 19.7406 68.9163 20.4301 68.9923 21.1653H75.5267C75.3079 18.8558 74.3797 17.042 72.7423 15.7238C71.1048 14.4056 68.8984 13.7465 66.1229 13.7465C64.5555 13.7178 62.999 14.0123 61.5504 14.6116C60.2933 15.1278 59.2094 15.9919 58.4261 17.1025C57.652 18.2387 57.2561 19.5901 57.2946 20.9644C57.2946 22.5659 57.6537 23.866 58.372 24.865C59.0344 25.8176 59.9202 26.5933 60.9518 27.1242C62.2015 27.7363 63.4918 28.2615 64.8137 28.696C65.8989 29.0745 66.7447 29.3989 67.3587 29.6692C67.9358 29.9127 68.4604 30.2655 68.9035 30.7081C69.108 30.9183 69.268 31.1675 69.3742 31.4408C69.4804 31.7142 69.5304 32.0061 69.5214 32.2992C69.5363 32.6133 69.4841 32.927 69.3682 33.2193C69.2523 33.5117 69.0755 33.776 68.8495 33.9946C68.3446 34.4379 67.6859 34.6653 67.015 34.6279C66.2019 34.6586 65.4094 34.3671 64.8099 33.817C64.2105 33.2255 63.8514 32.4331 63.8019 31.5925H57.3757C57.5404 34.0384 58.5291 35.9436 60.3416 37.3081C62.1542 38.6727 64.4623 39.355 67.2661 39.355C68.9039 39.4029 70.5299 39.0642 72.0124 38.3663ZM107.117 19.4081L111.848 31.4805L116.262 19.4081H122.935L110.647 48.5H104.008L108.635 38.3663L100.374 19.4081H107.117ZM151.521 33.9097V39.1001H148.818C146.501 39.1001 144.706 38.5299 143.435 37.3893C142.163 36.2487 141.519 34.359 141.504 31.72V24.4943H138.854V19.4081H141.504V14.5691H147.54V19.4081H151.494V24.4943H147.532V31.832C147.532 32.6044 147.69 33.145 148.007 33.454C148.324 33.7629 148.861 33.9136 149.614 33.9136L151.521 33.9097ZM177.861 19.9564C176.79 18.0533 175.222 16.4778 173.323 15.3994V15.3955C171.365 14.3188 169.166 13.7542 166.931 13.7542C164.697 13.7542 162.498 14.3188 160.54 15.3955C158.639 16.4755 157.065 18.0502 155.987 19.9526C154.887 21.9758 154.311 24.242 154.311 26.5449C154.311 28.8477 154.887 31.114 155.987 33.1372C157.066 35.0517 158.649 36.6344 160.563 37.7136C162.515 38.7897 164.707 39.3541 166.935 39.3541C169.164 39.3541 171.356 38.7897 173.308 37.7136C175.213 36.6321 176.787 35.0511 177.861 33.1411C178.955 31.1159 179.527 28.8504 179.527 26.5488C179.527 24.2471 178.955 21.9816 177.861 19.9564ZM160.455 26.5333C160.452 24.3269 161.034 22.58 162.201 21.2927V21.312C163.369 20.0247 164.941 19.381 166.916 19.381C168.891 19.381 170.461 20.0247 171.628 21.312C172.791 22.5941 173.373 24.3346 173.373 26.5333C173.373 28.732 172.785 30.4751 171.608 31.7624C170.457 33.0497 168.893 33.6933 166.916 33.6933C164.939 33.6933 163.367 33.0497 162.201 31.7624C161.039 30.4828 160.458 28.7398 160.455 26.5333ZM192.574 16.7241C191.586 16.7241 190.867 16.9365 190.419 17.3613C189.971 17.7862 189.724 18.4659 189.678 19.4082H193.246V24.4905H189.678V39.1079H183.649V24.4905H181.282V19.4082H183.649V19.1958C183.649 16.7473 184.361 14.8588 185.785 13.5303C187.209 12.2018 189.268 11.5363 191.964 11.5337C192.532 11.5337 192.953 11.5337 193.239 11.5684V16.7589L192.574 16.7241ZM204.345 17.3613C204.793 16.9365 205.512 16.7241 206.5 16.7241L207.153 16.7589V11.5684C206.871 11.5337 206.446 11.5337 205.882 11.5337C203.187 11.5363 201.127 12.2018 199.703 13.5303C198.28 14.8588 197.568 16.7473 197.568 19.1958V19.4082H195.2V24.4905H197.568V39.1079H203.604V24.4905H207.172V19.4082H203.604C203.65 18.4659 203.897 17.7862 204.345 17.3613Z" fill="#5822B3"/>
<path fill-rule="evenodd" clip-rule="evenodd" d="M38.4162 7.10395C37.9755 7.10387 37.534 7.1682 37.106 7.29765C36.1048 7.60051 35.2395 8.2411 34.6576 9.1103C34.0756 9.9795 33.813 11.0236 33.9144 12.0647C34.0158 13.1058 34.4749 14.0795 35.2137 14.8201C36.0627 15.6694 37.2141 16.1472 38.415 16.1486C39.4605 16.1483 40.4736 15.7857 41.2819 15.1226C42.0906 14.4592 42.6443 13.5359 42.8487 12.51C43.0532 11.4842 42.8956 10.4192 42.403 9.49641C41.9103 8.57365 41.113 7.85021 40.1469 7.44929C39.5943 7.21998 39.006 7.1043 38.4162 7.10395ZM30.6271 45.2325C30.0582 45.2326 29.4923 45.1209 28.9625 44.9013C28.2134 44.5908 27.5663 44.0769 27.0941 43.4177L23.9196 38.9417L21.3244 35.2883C19.486 32.8408 17.3197 30.6577 14.8866 28.8003L11.098 26.0969L6.61045 22.9108C5.95091 22.4398 5.4364 21.7936 5.12518 21.0452C4.81397 20.2969 4.71847 19.4764 4.84949 18.6766C4.98051 17.8768 5.33282 17.1297 5.86655 16.5198C6.40027 15.9099 7.09408 15.4615 7.86943 15.2256L8.23632 15.129L17.6324 12.2867C17.708 12.2645 17.7861 12.2535 17.8642 12.2536C17.9332 12.2535 18.0022 12.2621 18.0697 12.2794C18.2129 12.3162 18.3435 12.3909 18.4478 12.4956C18.5522 12.6003 18.6263 12.7313 18.6626 12.8746C18.6988 13.0179 18.6957 13.1683 18.6537 13.3101L18.002 15.3885L21.8187 11.0315L21.8033 11.0277C25.1315 7.6839 29.0888 5.0321 33.4469 3.22523C37.784 1.42707 42.4326 0.501112 47.1273 0.500001C47.1506 0.499995 47.1739 0.500011 47.1972 0.50005H47.2998C47.3014 0.500048 47.303 0.500046 47.3046 0.500047C47.5913 0.499949 47.8751 0.556225 48.1401 0.665692C48.406 0.775556 48.6476 0.936831 48.851 1.14027C49.0545 1.3437 49.2157 1.5853 49.3256 1.8512C49.4354 2.11709 49.4917 2.40206 49.4912 2.68976C49.5142 7.42622 48.5969 12.1201 46.7924 16.4994C44.9879 20.8787 42.3321 24.8563 38.9791 28.2017L34.616 32.0164L36.6987 31.3685C36.7777 31.344 36.8594 31.3318 36.9413 31.332C37.0071 31.3319 37.0729 31.3399 37.1373 31.3558C37.2814 31.3914 37.413 31.4657 37.5179 31.5706C37.6228 31.6755 37.6971 31.8071 37.7327 31.9512C37.7684 32.0952 37.764 32.2463 37.7201 32.388L34.8893 41.788L34.785 42.151C34.5493 42.9268 34.1011 43.6211 33.4913 44.1555C32.8815 44.6898 32.1343 45.0429 31.3342 45.1747C31.0995 45.2134 30.8631 45.2325 30.6271 45.2325ZM13.9753 32.0867L3.45922 42.6028C3.28577 42.7765 3.14823 42.9827 3.05446 43.2095C2.96069 43.4364 2.91252 43.6795 2.9127 43.9249C2.91288 44.1704 2.9614 44.4134 3.05551 44.6402C3.14961 44.8669 3.28744 45.0728 3.46114 45.2463C3.63485 45.4197 3.84101 45.5573 4.06787 45.651C4.29472 45.7448 4.53782 45.793 4.78329 45.7928C5.02876 45.7926 5.2718 45.7441 5.49851 45.65C5.72523 45.5559 5.93119 45.418 6.10464 45.2444L16.6207 34.7283C16.7941 34.5546 16.9317 34.3484 17.0254 34.1216C17.1192 33.8947 17.1674 33.6516 17.1672 33.4062C17.167 33.1607 17.1185 32.9177 17.0244 32.6909C16.9303 32.4642 16.7924 32.2583 16.6187 32.0848C16.445 31.9114 16.2389 31.7738 16.012 31.6801C15.7852 31.5863 15.5421 31.5381 15.2966 31.5383C15.0511 31.5385 14.8081 31.587 14.5814 31.6811C14.3547 31.7752 14.1487 31.913 13.9753 32.0867ZM10.2324 45.3062L17.1105 38.4281C17.4613 38.0773 17.9371 37.8802 18.4332 37.8802C18.4723 37.8802 18.5112 37.8814 18.5499 37.8838C19.0043 37.9117 19.4345 38.1045 19.7583 38.4282C20.1091 38.779 20.3062 39.2548 20.3062 39.7509C20.3062 40.2471 20.1091 40.7228 19.7583 41.0737L12.8763 47.9517C12.7031 48.1255 12.4972 48.2634 12.2706 48.3574C12.0439 48.4515 11.8009 48.4999 11.5555 48.4999C11.5167 48.4999 11.4779 48.4987 11.4392 48.4963C11.2328 48.4836 11.0297 48.4367 10.8382 48.3573C10.6116 48.2632 10.4057 48.1254 10.2324 47.9516C9.88222 47.6005 9.68555 47.1248 9.68555 46.6289C9.68555 46.133 9.88222 45.6573 10.2324 45.3062ZM1.8706 39.4631H1.86814C1.37327 39.4629 0.898677 39.2663 0.548454 38.9166C0.197649 38.5663 0.00036346 38.091 4.97158e-07 37.5953C-0.000360813 37.0995 0.196228 36.6239 0.546521 36.2731L7.42463 29.3912C7.77543 29.0404 8.25122 28.8433 8.74733 28.8433C9.24345 28.8433 9.71924 29.0404 10.07 29.3912C10.4209 29.742 10.6179 30.2178 10.6179 30.7139C10.6179 31.21 10.4209 31.6858 10.07 32.0366L3.19195 38.9147C2.84165 39.2655 2.36635 39.4628 1.8706 39.4631Z" fill="#FF66C4"/>
</svg>
